HIERARCHY
ROOT pelvis
{
  OFFSET 0 100 0
  CHANNELS 6 Xposition Yposition Zposition Zrotation Xrotation Yrotation
  JOINT pelvis_right_femur
  {
    OFFSET -10.78128 -3.44521 -0.5502486
    CHANNELS 3 Zrotation Xrotation Yrotation
    JOINT right_femur_tibia
    {
      OFFSET -0.8047443 -44.0398 -0.1307829
      CHANNELS 3 Zrotation Xrotation Yrotation
      JOINT right_tibia_foot
      {
        OFFSET 3.006224 -47.83518 -5
        CHANNELS 3 Zrotation Xrotation Yrotation
        End Site
        {
          OFFSET 0 -5 15
        }
      }
    }
  }
  JOINT pelvis_left_femur
  {
    OFFSET 10.78128 -3.44521 -0.5502486
    CHANNELS 3 Zrotation Xrotation Yrotation
    JOINT left_femur_tibia
    {
      OFFSET 0.8047443 -44.0398 -0.1307829
      CHANNELS 3 Zrotation Xrotation Yrotation
      JOINT left_tibia_foot
      {
        OFFSET -4.370144 -48.10324 -4.275266
        CHANNELS 3 Zrotation Xrotation Yrotation
        End Site
        {
          OFFSET 0 -5 15
        }
      }
    }
  }
  JOINT pelvis_spine1
  {
    OFFSET 0 6.468898 -3.129235
    CHANNELS 3 Zrotation Xrotation Yrotation
    JOINT spine1
    {
      OFFSET 0 23.15396 4.99043
      CHANNELS 3 Zrotation Xrotation Yrotation
      JOINT spine2
      {
        OFFSET 0 20.79997 -5.064912
        CHANNELS 3 Zrotation Xrotation Yrotation
        JOINT neck
        {
          OFFSET 0 14.38658 9.616178
          CHANNELS 3 Zrotation Xrotation Yrotation
          End Site
          {
            OFFSET 0 20 0
          }
        }
      }
      JOINT right_manubrium
      {
        OFFSET -5.722621 16.35077 3.967754
        CHANNELS 3 Zrotation Xrotation Yrotation
        JOINT right_clavicle
        {
          OFFSET -13.16364 1.694482 -4.693211
          CHANNELS 3 Zrotation Xrotation Yrotation
          JOINT right_humerus
          {
            OFFSET -28.5034 -0.3100689 -2.792744
            CHANNELS 3 Zrotation Xrotation Yrotation
            JOINT right_radius
            {
              OFFSET -25.15693 0.02248979 -1.271978
              CHANNELS 3 Zrotation Xrotation Yrotation
              End Site
              {
                OFFSET -15 0 0
              }
            }
          }
        }
      }
      JOINT left_manubrium
      {
        OFFSET 5.722621 16.35077 3.967754
        CHANNELS 3 Zrotation Xrotation Yrotation
        JOINT left_clavicle
        {
          OFFSET 13.16364 1.694482 -4.693211
          CHANNELS 3 Zrotation Xrotation Yrotation
          JOINT left_humerus
          {
            OFFSET 29.39168 -1.063119 -2.237045
            CHANNELS 3 Zrotation Xrotation Yrotation
            JOINT left_radius
            {
              OFFSET 24.59957 -0.9528479 0.9047498
              CHANNELS 3 Zrotation Xrotation Yrotation
              End Site
              {
                OFFSET 15 -0 -0
              }
            }
          }
        }
      }
    }
  }
}
MOTION
Frames: 15
Frame Time: 0.0416666666667
-1514.452 111.718 1522.784 -7.435633 8.704498 -141.8153 3.066055 9.908385 -3.063474 -0 21.13497 -0 -13.10293 -6.384619 -0.3658609 -1.090142 -6.411345 -7.825412 -0 8.823978 -0 5.885568 -2.22007 17.48153 1.306098 -2.743465 6.253425 0.3458762 15.86098 -6.501716 1.765242 21.23138 2.878769 -0.3087893 -21.47665 6.185472 -5.390289 -27.84912 12.05036 95.28293 15.29196 -14.83402 -0 0 18.40251 -22.7703 13.22224 14.36537 1.328334 -23.27441 -8.221676 -91.08 15.25895 29.73184 0 0 -17.83749 5.802369 14.85342 7.712857
-1518.977 111.3859 1518.694 -7.264885 8.762452 -142.3622 3.197335 10.31487 -2.855181 -0 21.08804 -0 -13.0237 -6.744469 -0.4550584 -0.898361 -6.94221 -7.641636 -0 8.837842 -0 5.835799 -1.997615 17.37519 1.331728 -2.766957 6.403832 0.3240915 15.89671 -6.437435 1.767856 21.06861 2.708938 -0.4370626 -21.40398 6.089359 -5.398505 -28.29404 12.03392 94.95584 15.35122 -14.21033 -0 0 19.36115 -22.83664 13.52617 14.69084 1.20955 -22.95713 -8.1021 -91.44854 15.1006 30.70206 0 0 -17.10685 5.487201 14.77093 8.08186
-1523.476 111.0616 1514.562 -7.10632 8.81642 -142.9147 3.25555 10.75007 -2.716047 -0 21.10669 -0 -12.98357 -7.069886 -0.5040161 -0.7572641 -7.409098 -7.534389 -0 8.830813 -0 5.712025 -1.839339 17.32483 1.345475 -2.783835 6.54458 0.2956017 15.90468 -6.355123 1.773905 20.91978 2.550631 -0.5569983 -21.3239 6.0035 -5.398215 -28.70008 11.99902 94.61424 15.42632 -13.57787 -0 0 20.27766 -22.90364 13.80589 15.01367 1.111052 -22.63044 -7.969779 -91.81912 14.97313 31.62199 0 0 -16.38315 5.15265 14.66245 8.493244
-1527.948 110.7485 1510.386 -6.959712 8.867256 -143.4712 3.251483 11.20869 -2.636835 -0 21.18431 -0 -12.97677 -7.364287 -0.517785 -0.6624234 -7.817622 -7.495173 -0 8.80479 -0 5.529473 -1.732752 17.32262 1.347847 -2.794148 6.671729 0.2614409 15.88736 -6.258469 1.782548 20.78956 2.409553 -0.6640456 -21.24073 5.930099 -5.390432 -29.05563 11.94894 94.27169 15.5121 -12.9598 -0 0 21.12191 -22.97047 14.05164 15.32259 1.035505 -22.30702 -7.831471 -92.18028 14.8777 32.46417 0 0 -15.69067 4.81374 14.53367 8.92715
-1532.392 110.45 1506.162 -6.824592 8.916009 -144.0305 3.195839 11.68563 -2.6082 -0 21.31342 -0 -12.99807 -7.628158 -0.5012276 -0.608315 -8.174088 -7.51452 -0 8.765504 -0 5.301045 -1.667715 17.36051 1.340071 -2.797981 6.782697 0.2230321 15.84858 -6.151792 1.793036 20.68103 2.289284 -0.7553682 -21.15846 5.870334 -5.376573 -29.35387 11.88761 93.94027 15.6036 -12.37542 -0 0 21.87238 -23.03562 14.25697 15.60798 0.9833521 -21.99724 -7.693268 -92.52278 14.81411 33.20996 0 0 -15.04671 4.483716 14.39123 9.364574
-1536.81 110.1694 1501.887 -6.700492 8.963709 -144.5914 3.098133 12.17592 -2.621951 -0 21.48627 -0 -13.04311 -7.859853 -0.4585 -0.589523 -8.484147 -7.583478 -0 8.720308 -0 5.037006 -1.636798 17.43129 1.3239 -2.795617 6.876281 0.1820496 15.79299 -6.039689 1.804726 20.59551 2.191259 -0.829854 -21.08038 5.824366 -5.35826 -29.59277 11.81917 93.62977 15.69636 -11.83921 -0 0 22.51678 -23.09726 14.41913 15.86268 0.9530892 -21.70885 -7.560174 -92.83972 14.78069 33.84964 0 0 -14.46213 4.173131 14.24202 9.788995
-1541.2 109.9098 1497.561 -6.587061 9.011274 -145.1529 2.966319 12.67481 -2.67134 -0 21.69562 -0 -13.10844 -8.056379 -0.3929391 -0.6012966 -8.75226 -7.694274 -0 8.676648 -0 4.74532 -1.634899 17.52891 1.301355 -2.787596 6.952495 0.1402012 15.72553 -5.926565 1.817089 20.53265 2.11508 -0.8878423 -21.00884 5.791493 -5.337087 -29.77442 11.7475 93.3472 15.78678 -11.3605 -0 0 23.0515 -23.15358 14.53877 16.08243 0.9418266 -21.44695 -7.435908 -93.12653 14.77448 34.38145 0 0 -13.94235 3.889372 14.09245 10.18756
-1545.562 109.6739 1493.179 -6.484104 9.059486 -145.714 2.806824 13.1777 -2.750937 -0 21.9352 -0 -13.19128 -8.213951 -0.3071356 -0.6397076 -8.981621 -7.84046 -0 8.641231 -0 4.432134 -1.658728 17.64843 1.27444 -2.774673 7.012271 0.09900414 15.65086 -5.816202 1.829709 20.49077 2.059033 -0.930683 -20.94522 5.770405 -5.314422 -29.90375 11.67587 93.09671 15.8722 -10.94375 -0 0 23.47984 -23.20317 14.61924 16.26574 0.945976 -21.21425 -7.322901 -93.38079 14.79165 34.80977 0 0 -13.48854 3.636659 13.94783 10.55165
-1549.897 109.4643 1488.741 -6.391567 9.10899 -146.2736 2.624755 13.68015 -2.85638 -0 22.19989 -0 -13.28941 -8.328329 -0.2030696 -0.7016045 -9.174298 -8.016782 -0 8.619692 -0 4.102218 -1.706351 17.78585 1.244919 -2.75771 7.057117 0.05962554 15.57296 -5.711459 1.842284 20.46743 2.020673 -0.9602644 -20.88995 5.75948 -5.291287 -29.9872 11.60676 92.87987 15.95103 -10.58938 -0 0 23.80972 -23.24516 14.66541 16.4134 0.9618854 -21.01144 -7.222438 -93.60194 14.82808 35.14296 0 0 -13.09878 3.41645 13.81202 10.87671
-1554.204 109.2833 1484.245 -6.309507 9.160305 -146.8305 2.424161 14.17779 -2.984094 -0 22.48565 -0 -13.401 -8.394997 -0.08225592 -0.7844797 -9.331441 -8.218958 -0 8.616557 -0 3.759317 -1.776856 17.9379 1.214181 -2.737547 7.088794 0.02281759 15.49489 -5.614181 1.854622 20.45991 1.99732 -0.9786199 -20.84278 5.757039 -5.268329 -30.03159 11.54181 92.69623 16.02256 -10.29482 -0 0 24.05148 -23.27925 14.68275 16.52779 0.9862923 -20.8377 -7.134884 -93.79085 14.87985 35.39137 0 0 -12.76921 3.228072 13.68739 11.16168
-1558.482 109.133 1479.69 -6.238054 9.213828 -147.3835 2.208284 14.66622 -3.131032 -0 22.78952 -0 -13.52447 -8.409244 0.05412156 -0.8863177 -9.45349 -8.44342 -0 8.635322 -0 3.406447 -1.870082 18.10184 1.18321 -2.714912 7.109076 -0.01106108 15.41877 -5.525275 1.866626 20.46559 1.986419 -0.9876599 -20.80297 5.761533 -5.24586 -30.04324 11.48189 92.54397 16.08683 -10.05566 -0 0 24.21606 -23.30555 14.67648 16.61208 1.01656 -20.69119 -7.059951 -93.94936 14.94358 35.56571 0 0 -12.49483 3.069429 13.57495 11.40805
-1562.731 109.0151 1475.074 -6.177379 9.269839 -147.931 1.979775 15.14085 -3.294452 -0 23.10948 -0 -13.65836 -8.366217 0.2050899 -1.005454 -9.540337 -8.687087 -0 8.678581 -0 3.046149 -1.986412 18.27529 1.152619 -2.690365 7.11959 -0.04196931 15.3459 -5.44491 1.878273 20.48217 1.985739 -0.9890282 -20.76953 5.771643 -5.223929 -30.02754 11.42729 92.42047 16.14436 -9.866648 -0 0 24.31375 -23.32449 14.65116 16.6697 1.050732 -20.56958 -6.996945 -94.07986 15.01661 35.67596 0 0 -12.27036 2.93764 13.47468 11.61891
-1566.949 108.931 1470.396 -6.127672 9.3285 -148.4713 1.74087 15.59684 -3.471719 -0 23.44454 -0 -13.80125 -8.260941 0.3697821 -1.140463 -9.591434 -8.947175 -0 8.748143 -0 2.680726 -2.126588 18.45605 1.122724 -2.664294 7.12173 -0.07008678 15.27691 -5.372746 1.889599 20.50781 1.993456 -0.9840517 -20.74137 5.786313 -5.202399 -29.98875 11.37789 92.32288 16.19601 -9.722453 -0 0 24.35349 -23.3366 14.61046 16.70388 1.087469 -20.47034 -6.944967 -94.18489 15.09701 35.73077 0 0 -12.09067 2.829548 13.38584 11.79821
-1571.136 108.8822 1465.657 -6.089122 9.389859 -149.0026 1.493532 16.02888 -3.660148 -0 23.79466 -0 -13.95172 -8.08835 0.5473403 -1.290061 -9.605846 -9.221039 -0 8.845122 -0 2.312439 -2.291561 18.64203 1.093629 -2.63693 7.116626 -0.09572147 15.21196 -5.30815 1.900675 20.54109 2.008148 -0.9737491 -20.71743 5.804748 -5.181022 -29.93007 11.33331 92.24844 16.24277 -9.61817 -0 0 24.34258 -23.34244 14.55716 16.7174 1.125932 -20.39105 -6.903078 -94.26686 15.1835 35.73714 0 0 -11.95121 2.742077 13.30727 11.95008
-1575.291 108.8693 1460.855 -6.061905 9.453845 -149.5225 1.239564 16.43109 -3.856883 -0 24.1609 -0 -14.10824 -7.84334 0.7368221 -1.453039 -9.58226 -9.506048 -0 8.969997 -0 1.943703 -2.482351 18.8311 1.065301 -2.608378 7.105146 -0.1192336 15.15091 -5.250378 1.911595 20.581 2.02876 -0.9588683 -20.69674 5.826375 -5.159491 -29.85371 11.29306 92.19471 16.28565 -9.549638 -0 0 24.28661 -23.34248 14.49327 16.71249 1.165648 -20.32961 -6.870403 -94.32784 15.27531 35.70045 0 0 -11.84822 2.672464 13.23765 12.07843
